<?xml version="1.0" encoding="UTF-8" standalone="no"?>
<!-- Generator: Adobe Illustrator 18.0.0, SVG Export Plug-In . SVG Version: 6.00 Build 0)  -->

<svg
   xmlns:dc="http://purl.org/dc/elements/1.1/"
   xmlns:cc="http://creativecommons.org/ns#"
   xmlns:rdf="http://www.w3.org/1999/02/22-rdf-syntax-ns#"
   xmlns:svg="http://www.w3.org/2000/svg"
   xmlns="http://www.w3.org/2000/svg"
   xmlns:sodipodi="http://sodipodi.sourceforge.net/DTD/sodipodi-0.dtd"
   xmlns:inkscape="http://www.inkscape.org/namespaces/inkscape"
   version="1.1"
   id="Layer_1"
   x="0px"
   y="0px"
   viewBox="0 0 1000 410"
   enable-background="new 0 0 1000 410"
   xml:space="preserve"
   sodipodi:docname="iris-dark.svg"
   inkscape:version="0.92.1 r15371"><metadata
     id="metadata5421"><rdf:RDF><cc:Work
         rdf:about=""><dc:format>image/svg+xml</dc:format><dc:type
           rdf:resource="http://purl.org/dc/dcmitype/StillImage" /><dc:title></dc:title></cc:Work></rdf:RDF></metadata><defs
     id="defs5419" /><sodipodi:namedview
     pagecolor="#ffffff"
     bordercolor="#666666"
     borderopacity="1"
     objecttolerance="10"
     gridtolerance="10"
     guidetolerance="10"
     inkscape:pageopacity="0"
     inkscape:pageshadow="2"
     inkscape:window-width="1920"
     inkscape:window-height="1009"
     id="namedview5417"
     showgrid="false"
     inkscape:zoom="1.44"
     inkscape:cx="500"
     inkscape:cy="205"
     inkscape:window-x="1912"
     inkscape:window-y="-8"
     inkscape:window-maximized="1"
     inkscape:current-layer="Layer_1" /><g
     id="g5330"><g
       id="g5314"><path
         d="M0,0h1000v410H0V0z M114.7,12.9c-29.1,9.9-54.9,29.1-72.8,54.1c-18,24.9-28,55.5-27.9,86.2    c-0.6,44.6,20.7,88.6,55.5,116.4c25.7,20.8,58.5,32.6,91.6,32.8c18.6,0.2,37.2-3.1,54.5-9.8c29.1-11.1,54.4-31.5,71.4-57.6    c15.9-24.1,24.4-53,24.3-81.9c-0.1-17.6-3.2-35.2-9.5-51.7c-10.5-28-29.7-52.7-54.3-69.8C222.4,14,191.8,4.5,161.1,5    C145.4,5.1,129.6,7.8,114.7,12.9z M362.5,29.8c-5.7,1.6-9.6,7.3-9.4,13.2c0,76.4,0,152.7,0,229.1c-0.5,7.5,6.6,13.7,13.9,13.4    c7.5,0.5,15.3-5.4,14.9-13.3c0-76,0-152,0-228c0.1-3.3-0.6-6.7-2.6-9.3C375.6,29.6,368.4,27.9,362.5,29.8z M706.5,29.5    c-6.1,1.4-10.4,7.3-10.2,13.4c0,76.4,0,152.7,0,229.1c-0.4,7.1,5.8,13.2,12.8,13.3c7.4,0.9,15.8-4.3,15.9-12.3    C725,196,725,119,725,42C724.9,32.9,714.7,27,706.5,29.5z M850.5,33.7c-15.9,2.1-31.7,6.4-46,13.8c-13.1,6.8-25.2,16.6-32.4,29.7    c-7.9,14.1-8.9,31.3-4.8,46.7c3.2,12,11.3,22.4,21.7,28.9c15,9.4,32.8,13,50.1,15.5c25.8,3.6,52,3.7,77.7,8.3    c11.3,2.3,23.2,5.4,31.7,13.8c8.8,8.7,9.7,22.7,5.7,33.9c-4.1,11.4-14.1,19.5-24.7,24.5c-17.3,8-36.6,10.6-55.5,10.9    c-19.6-0.2-39.8-2.3-57.7-10.9c-11.9-5.7-22.3-15.6-25.8-28.6c-1.1-4.8-5.8-7.8-10.5-8.2c-6.5-0.7-14.1,1.8-17.1,8    c-2.5,5.3,0.3,11,2.3,16c6.3,14.9,18.8,26.4,32.9,34.1c15.7,8.5,33.2,13.2,50.8,15.6c25.1,3.4,51,1.7,75.4-5.3    c16.3-4.8,32.3-12.4,44.2-24.8c9.6-9.8,15.7-22.9,17.1-36.5c1.5-15.2-0.7-31.8-10.7-43.9c-10.1-12.3-25.8-18.3-40.9-21.8    c-25.3-5.6-51.2-6.3-76.9-8.9c-13.6-1.5-27.5-3.1-40.4-8.3c-7.7-3.1-15.1-8.3-18.8-16c-5-10.7-3.8-24.2,3.5-33.6    c7.1-9.4,18-15.1,28.9-18.9c23.6-8.1,49.2-8.1,73.6-3.6c15.1,3,30.9,8.9,40.7,21.5c3,3.5,4.4,8.1,6.9,12c5.2,6,15,5.4,21,1    c3.8-2.6,5.5-7.7,3.9-12c-3.8-11.2-10.8-21.3-19.8-29c-13.1-11.3-29.7-17.6-46.5-21.1C890.6,32.5,870.4,31.4,850.5,33.7z     M439.9,51c0,71.7,0,143.3,0,215c0.1,3.3-0.4,6.8,1,9.9c2.2,5.5,8.6,8.2,14.3,7.7c6.6-0.2,12.9-5.7,12.8-12.5    c0.1-24.9,0-49.9,0-74.8c24.6,0,49.3,0,73.9,0c25.7,27.7,51.2,55.5,76.8,83.2c2.2,2.5,5.2,4.4,8.5,5c6.5,1.3,13.9-2.8,15.7-9.3    c1.3-4.2-0.3-8.7-3-11.9c-20.9-22.9-42.3-45.4-63-68.4c16.1-2.9,32.2-8.5,44.8-19.3c11.1-9.4,18.4-22.8,21.2-37    c3.5-17.8,2-36.8-6-53.2c-6.9-14.6-18.9-26.4-33-34.1C586.1,41.6,565.8,38,546,37.9c-31,0-61.9,0-92.9,0    C446,37.7,439.5,43.8,439.9,51z M449.6,316.6c0.1,22.1-0.1,44.2,0.1,66.4c2.6,0,5.2,0,7.8,0c-0.1-22.1,0.3-44.2-0.2-66.3    C454.8,316.6,452.2,316.6,449.6,316.6z M918.5,317.4c0,17.5,0,35,0,52.6c-0.2,5.3,3.4,10.4,8.3,12.2c4.4,1.5,9.1,0.6,13.6,0.8    c0-2.4,0-4.9,0-7.3c-3.4-0.2-6.9,0-10.3-0.3c-2.4-0.5-3.9-2.9-3.8-5.3c-0.1-7.9,0-15.9,0-23.8c4,0,7.9,0,11.8-0.1    c0-2.4,0-4.9,0-7.3c-4,0.2-8.2-0.7-12,0.8c0.1-7.4,0.3-14.9-0.1-22.3C923.5,317.4,921,317.4,918.5,317.4z M468.6,319    c0,2.7,0,5.5,0.1,8.2c2.6,0,5.1,0.1,7.7,0.1c0-2.8,0-5.5-0.1-8.3C473.7,319,471.2,319,468.6,319z M362.4,338.6    c-3.8,1.1-6.9,3.9-8.4,7.6c-1.2,2.8-0.9,5.9-0.9,8.9c0.1,5.6-0.1,11.3,0.1,16.9c0.4,6.4,6.4,11.8,12.8,11.6    c4.6,0,9.3,0.2,13.9-0.1c6-0.8,10.9-6.4,10.9-12.5c0-6.7,0-13.3,0-20c0-5-3.2-9.8-7.8-11.8c-3.1-1.5-6.7-1-10-1.1    C369.4,338.2,365.9,337.8,362.4,338.6z M401.3,344.9c0,12.7,0,25.4,0,38.1c2.6,0,5.2,0,7.8-0.1c0.2-12.2,0-24.5,0.1-36.7    c5.6-0.1,11.3-0.1,16.9,0c3-0.1,5.4,2.9,5,5.8c0.1,10.3-0.1,20.6,0.1,31c2.6,0.1,5.1,0.1,7.7,0.1c0-10.3,0-20.7,0-31    c0.2-4.9-2.6-9.8-7-11.9c-3.3-1.8-7.2-1.3-10.8-1.4c-5,0.1-10-0.2-15,0.1C403.1,339.2,401.1,342.1,401.3,344.9z M468.6,338.7    c0.1,14.8-0.2,29.5,0.1,44.2c2.5,0,5.1,0,7.6,0c0-14.7,0.1-29.5,0-44.2C473.8,338.8,471.2,338.7,468.6,338.7z M487.4,344.9    c-0.1,12.7,0,25.4,0,38.1c2.6,0,5.2,0,7.8,0c0.3-12.3,0-24.5,0.2-36.8c5.6-0.1,11.2-0.1,16.8-0.1c2.6-0.1,5,2.2,5.1,4.8    c0.2,10.6,0,21.3,0.1,31.9c2.6,0.1,5.1,0.1,7.7,0.1c0-10.7,0-21.4,0-32.1c-0.1-6.3-5.7-11.9-12-12.1c-6.7-0.1-13.3-0.1-20,0    C489.8,338.6,487.2,341.8,487.4,344.9z M539.7,341.7c-4.2,3.4-4.1,9.3-4,14.3c0.1,5.3-0.3,10.7,0.2,16c0.7,5.9,6,10.8,12,11    c7.9,0.1,15.8,0,23.8,0c0-2.5,0-5-0.2-7.4c-8.1-0.2-16.3,0.3-24.4-0.2c-5-1.8-3.1-8-3.5-12c3.3,1.5,7,0.9,10.4,1    c6-0.1,12,0.2,18-0.1c2.1-0.1,1.3-2.8,1.5-4.1c-0.3-5.6,1.2-12.2-2.7-16.9c-3.3-4.2-9-4.6-13.9-4.4    C551.2,339,544.5,337.6,539.7,341.7z M617.9,343c0.1,20.5-0.1,41,0.1,61.6c2.5,0,5.1,0,7.6-0.1c0.2-8,0.1-15.9,0-23.9    c2.1,1.8,4.7,2.7,7.4,2.5c6.2-0.2,13.5,1.3,18.3-3.8c4.7-4.5,3.3-11.4,3.5-17.2c-0.3-5.6,0.9-11.4-1.2-16.7    c-1.9-4.5-7-6.7-11.6-6.5c-7.3,0.1-14.6-0.1-21.9,0.1C618,339,617.8,341.3,617.9,343z M668.6,346.1c6.7,0.1,13.4-0.3,20.1,0.2    c3.6,0.8,3.7,5,3.5,8c-6.7,0.5-13.6-0.8-20.1,0.8c-8.5,2.7-10.7,13.6-7.2,21c2.1,4,6.4,6.9,11,6.9c7.1,0.1,14.1,0.1,21.2,0    c1.5,0.2,3-1.4,2.8-2.9c0.1-8.4,0-16.8,0.1-25.1c0-3.5,0.2-7.2-1.6-10.4c-2.1-3.7-6.3-5.7-10.4-5.8c-6.5-0.1-13.1,0-19.6,0    C668.3,341.2,668.4,343.7,668.6,346.1z M710.3,338.8c0,10.4,0,20.9,0,31.3c-0.1,5.8,4.1,11.2,9.8,12.6c4.3,0.7,8.7,0.3,13,0.4    c2.4,0.2,4.4-1.1,6.3-2.4c-0.2,3.8,0.1,7.6-0.1,11.5c0,2.7-2.4,5.1-5.1,5c-7.3,0.2-14.5-0.1-21.8,0.2c-0.1,2.4-0.1,4.9,0,7.3    c7.5-0.1,15.1,0,22.6-0.1c6.5-0.1,12.1-6,12.1-12.4c0-17.7,0-35.5,0-53.2c-2.6-0.1-5.2-0.1-7.7-0.1c0,10.4,0,20.9,0,31.3    c0.3,2.5-1.6,5.2-4.2,5.4c-4,0.1-8,0.1-12,0c-2.8,0.1-5.1-2.7-4.9-5.4c-0.1-10.4,0.1-20.8-0.1-31.3    C715.5,338.8,712.8,338.7,710.3,338.8z M757.9,344.9c0,12.7,0,25.4,0,38.1c2.6,0,5.1,0,7.7-0.2c0.1-12.2-0.2-24.5,0.2-36.7    c5,0,10-0.1,14.9,0.1c0.2,12.2-0.1,24.5,0.1,36.7c2.6,0,5.1,0,7.7,0c0-11,0-22,0-33c0.1-1.4-0.4-2.7-1-3.9    c3.9,0.2,7.8-0.1,11.7,0.2c2.8,0.3,4.6,3.1,4.3,5.8c0,10.3,0,20.5,0,30.8c2.6,0.1,5.2,0.2,7.8,0.2c0-10.7,0-21.3,0-32    c0-6.5-5.8-12.2-12.2-12.2c-11.7-0.1-23.4,0-35.1,0C760.5,338.4,757.5,341.5,757.9,344.9z M821.7,350.1c-0.2,6.9-0.1,13.9,0,20.9    c0.2,6.4,5.9,12,12.3,12c7.8,0.1,15.7,0,23.6,0c0-2.4,0-4.9,0-7.3c-8.1-0.5-16.3,0.1-24.4-0.4c-5.1-1.7-3.2-8-3.7-12    c7.6,2.1,15.7,0.4,23.5,1c2.1-0.3,6.6,1.2,6.4-2.3c0-4.9,0.5-9.9-0.5-14.8c-1.4-5.6-7.3-8.8-12.8-8.4c-5.3,0.2-10.8-0.6-16,0.6    C825.3,340.6,821.8,345.2,821.7,350.1z M870,344.9c0,12.7,0,25.4,0,38.1c2.6,0,5.2,0,7.8-0.2c0.2-12.2,0-24.4,0.1-36.6    c5.7-0.1,11.5-0.2,17.2,0c2.9,0.1,5,3,4.8,5.7c0.1,10.3,0,20.7,0,31c2.6,0.1,5.1,0.1,7.7,0.1c0-10.6,0-21.3,0-31.9    c0-6.6-6-12.4-12.6-12.3c-6.3,0-12.7,0-19,0C872.6,338.5,869.7,341.6,870,344.9z M948.8,343.7c-2.5,3.9-1.8,8.9-1.7,13.3    c0.1,1.7,2,2.2,3.4,2.6c9.2,2.3,18.3,4.4,27.5,6.8c0,2.1,0.3,4.3-0.3,6.3c-0.9,2.2-3.5,3-5.7,2.9c-8.1,0-16.2,0-24.3,0    c-0.2,2.5-0.3,4.9-0.2,7.4c8.2,0,16.3,0,24.5,0c4,0.1,8.3-1.1,10.9-4.3c3.5-4.4,2.3-10.5,2.4-15.7c0.2-1.9-1.7-2.7-3.2-2.9    c-9-2.1-18-4.3-27.1-6.4c-0.4-2.7-0.6-7.2,3.1-7.5c8.4-0.3,16.8,0,25.2-0.1c0.1-2.4,0.1-4.9,0.1-7.3c-8.1,0-16.3,0-24.4,0    C955.1,338.7,950.9,340.3,948.8,343.7z"
         id="path5312"
         fill="#FFFFFF" /></g><path
       d="M467.9,63.6c26.4,0,52.8,0,79.2,0c18.6,0.3,38,5.5,52,18.3C610.1,92,616.5,107,616,122   c0.2,13.3-5.9,26.5-16.4,34.7c-13.9,11.2-32.2,14.6-49.6,15.2c-27.4,0.1-54.8,0-82.1,0C467.9,135.9,467.9,99.8,467.9,63.6z"
       id="path5316"
       fill="#FFFFFF" /><path
       d="M125.2,120.3c9.1-10.3,22.6-16.5,36.4-16.8c13.2-0.3,26.3,4.9,35.7,14.1c9.6,9.2,15.2,22.3,15.3,35.5   c0.1,14.2-6.1,28.3-16.8,37.8c-9.3,8.4-21.8,13-34.3,12.7c-14.5-0.2-28.8-7.2-37.9-18.5c-7.3-8.9-11.3-20.4-11.3-31.9   C112.6,141.2,117.2,129.3,125.2,120.3z"
       id="path5318"
       fill="#FFFFFF" /><path
       d="M363.3,346.3c4.3-1.5,9.1-0.4,13.6-0.7c3.1-0.4,6.2,2.1,5.9,5.3c0,6.7,0.1,13.5,0,20.2   c0.1,2.6-2.2,5.1-4.8,5.1c-4,0.1-8,0.1-12.1,0c-2.7,0.1-5.1-2.4-5-5.1c-0.1-6.4,0-12.7-0.1-19.1   C360.7,349.9,361.4,347.5,363.3,346.3z"
       id="path5320"
       fill="#FFFFFF" /><path
       d="M546.5,346.5c3.7-0.9,7.7-0.2,11.5-0.4c2.6,0.1,6.3-0.5,7.5,2.5c0.8,2.6,0.4,5.5,0.4,8.2   c-7.4,0.2-14.7,0.1-22.1,0.1C543.8,353.4,542.4,348.3,546.5,346.5z"
       id="path5322"
       fill="#FFFFFF" /><path
       d="M625.8,346.1c5.8,0.1,11.6-0.2,17.3,0.1c2.4,0.1,3.9,2.5,3.8,4.7c0.1,6.4,0,12.8,0,19.1   c0.3,2.7-2,5.4-4.8,5.4c-4,0.1-8,0.1-12,0c-2.8,0-4.6-2.9-4.3-5.5C625.7,362,625.5,354.1,625.8,346.1z"
       id="path5324"
       fill="#FFFFFF" /><path
       d="M830.7,347.6c2.8-2.6,7-1.2,10.4-1.5c3.3,0.4,7.7-1.2,10,2c1.3,2.7,0.6,5.8,0.6,8.7   c-7.4,0.1-14.8,0.1-22.1,0C829.7,353.8,828.7,350.3,830.7,347.6z"
       id="path5326"
       fill="#FFFFFF" /><path
       d="M677,375.4c-7.1,0.7-8.1-11.5-2-13.4c5.7-0.6,11.6,0.6,17.2-0.7c-0.1,4.7,0,9.4-0.1,14   C687.2,375.4,682.1,375.4,677,375.4z"
       id="path5328"
       fill="#FFFFFF" /></g><g
     id="g5334"
     transform="translate(0,45.833333)"><path
       d="m 114.7,12.9 c 14.9,-5.1 30.6,-7.7 46.4,-7.9 0,17.2 0.1,34.4 -0.1,51.5 -21.1,0.4 -42.1,7.7 -58.6,20.9 -18.1,14.2 -30.9,35.1 -35.2,57.8 -1.2,5.9 -1.5,12 -2,18 -17.1,-0.1 -34.2,0 -51.2,-0.1 -0.1,-30.7 9.9,-61.3 27.9,-86.2 17.9,-25 43.7,-44.2 72.8,-54 z"
       id="path5332"
       inkscape:connector-curvature="0"
       style="fill:#ee3b37" /></g><g
     id="g5338"
     transform="translate(0,45.833333)"><path
       d="m 161.1,5 c 30.6,-0.4 61.3,9.1 86.3,26.6 24.6,17.1 43.8,41.7 54.3,69.8 6.2,16.5 9.4,34.1 9.5,51.7 -17.1,0.1 -34.2,0 -51.3,0.1 h -0.4 C 259.8,131.9 252.2,110.7 239.1,94 220.9,70.4 191.5,56.1 161.7,56.5 c -0.1,0 -0.4,0 -0.6,0 0.1,-17.2 0,-34.4 0,-51.5 z"
       id="path5336"
       inkscape:connector-curvature="0"
       style="fill:#2671b5" /></g><g
     id="g5390"
     style="fill:#000000;fill-opacity:1"><path
       fill="#FFFFFF"
       d="M362.5,29.8c5.9-1.9,13.1-0.2,16.8,4.9c2,2.7,2.7,6.1,2.6,9.3c0,76,0,152,0,228c0.4,7.9-7.4,13.9-14.9,13.3   c-7.3,0.3-14.4-5.8-13.9-13.4c0-76.4,0-152.7,0-229.1C352.9,37.1,356.8,31.4,362.5,29.8z"
       id="path5340"
       style="fill:#000000;fill-opacity:1" /><path
       fill="#FFFFFF"
       d="M706.5,29.5c8.2-2.6,18.5,3.3,18.5,12.4C725,119,725,196,725,273c-0.1,8-8.5,13.2-15.9,12.3   c-7-0.1-13.2-6.3-12.8-13.3c0-76.3,0-152.7,0-229.1C696.1,36.8,700.4,30.9,706.5,29.5z"
       id="path5342"
       style="fill:#000000;fill-opacity:1" /><path
       fill="#FFFFFF"
       d="M850.5,33.7c19.8-2.4,40-1.3,59.6,2.5c16.8,3.5,33.4,9.8,46.5,21.1c9,7.7,15.9,17.8,19.8,29   c1.6,4.3-0.1,9.4-3.9,12c-6,4.4-15.8,5-21-1c-2.5-3.9-3.8-8.4-6.9-12c-9.8-12.6-25.5-18.4-40.7-21.5c-24.3-4.5-50-4.5-73.6,3.6   c-10.9,3.8-21.8,9.5-28.9,18.9c-7.2,9.4-8.5,22.9-3.5,33.6c3.7,7.7,11.1,12.9,18.8,16c12.8,5.2,26.7,6.8,40.4,8.3   c25.7,2.6,51.6,3.3,76.9,8.9c15.1,3.5,30.8,9.4,40.9,21.8c10,12.1,12.2,28.7,10.7,43.9c-1.4,13.7-7.5,26.7-17.1,36.5   c-11.9,12.4-27.9,20-44.2,24.8c-24.4,7-50.3,8.7-75.4,5.3c-17.6-2.4-35.1-7.1-50.8-15.6c-14.1-7.6-26.6-19.1-32.9-34.1   c-1.9-5-4.8-10.7-2.3-16c3.1-6.1,10.7-8.7,17.1-8c4.7,0.4,9.4,3.4,10.5,8.2c3.5,13,13.9,22.9,25.8,28.6   c17.9,8.6,38.1,10.7,57.7,10.9c18.9-0.3,38.2-2.8,55.5-10.9c10.7-5,20.6-13.1,24.7-24.5c4-11.2,3.1-25.2-5.7-33.9   c-8.4-8.3-20.4-11.5-31.7-13.8c-25.7-4.6-51.9-4.7-77.7-8.3c-17.3-2.5-35.1-6-50.1-15.5c-10.5-6.5-18.6-16.9-21.7-28.9   c-4.1-15.4-3.1-32.6,4.8-46.7c7.2-13.1,19.3-22.9,32.4-29.7C818.9,40.1,834.6,35.8,850.5,33.7z"
       id="path5344"
       style="fill:#000000;fill-opacity:1" /><g
       id="g5348"
       style="fill:#000000;fill-opacity:1"><path
         fill="#FFFFFF"
         d="M439.9,51c-0.4-7.2,6.2-13.3,13.2-13.1c30.9-0.1,61.9,0,92.9,0c19.9,0.2,40.1,3.7,57.7,13.3    c14.1,7.6,26.1,19.5,33,34.1c8,16.4,9.4,35.4,6,53.2c-2.8,14.2-10.1,27.6-21.2,37c-12.5,10.8-28.7,16.4-44.8,19.3    c20.7,23.1,42.1,45.5,63,68.4c2.8,3.2,4.3,7.8,3,11.9c-1.8,6.5-9.2,10.6-15.7,9.3c-3.3-0.6-6.2-2.5-8.5-5    c-25.6-27.7-51.1-55.5-76.8-83.2c-24.6,0.1-49.3,0-73.9,0c0,24.9,0,49.9,0,74.8c0.1,6.9-6.1,12.4-12.8,12.5    c-5.7,0.5-12-2.2-14.3-7.7c-1.3-3.1-0.9-6.6-1-9.9C439.9,194.3,439.9,122.7,439.9,51z M467.9,63.6c0,36.1,0,72.2,0,108.4    c27.4,0,54.8,0.1,82.1,0c17.4-0.6,35.7-4.1,49.6-15.2c10.5-8.2,16.5-21.4,16.4-34.7c0.5-15-5.9-30-17-40.1    c-14-12.8-33.3-18-52-18.3C520.7,63.6,494.3,63.6,467.9,63.6z"
         id="path5346"
         style="fill:#000000;fill-opacity:1" /></g><path
       fill="#FFFFFF"
       d="M449.6,316.6c2.6,0,5.1,0,7.7,0c0.5,22.1,0.1,44.2,0.2,66.3c-2.6,0-5.2,0-7.8,0   C449.5,360.9,449.7,338.7,449.6,316.6z"
       id="path5350"
       style="fill:#000000;fill-opacity:1" /><path
       fill="#FFFFFF"
       d="M918.5,317.4c2.5,0,5,0,7.5,0c0.4,7.4,0.2,14.9,0.1,22.3c3.8-1.5,8-0.6,12-0.8c0,2.4,0,4.9,0,7.3   c-3.9,0.1-7.9,0.1-11.8,0.1c0,7.9-0.1,15.9,0,23.8c-0.1,2.4,1.4,4.8,3.8,5.3c3.4,0.3,6.9,0,10.3,0.3c0,2.4,0,4.9,0,7.3   c-4.5-0.2-9.2,0.7-13.6-0.8c-4.9-1.8-8.5-6.9-8.3-12.2C918.5,352.4,918.5,334.9,918.5,317.4z"
       id="path5352"
       style="fill:#000000;fill-opacity:1" /><path
       fill="#FFFFFF"
       d="M468.6,319c2.6,0,5.1,0,7.7,0c0.1,2.8,0.1,5.5,0.1,8.3c-2.6,0-5.1,0-7.7-0.1   C468.6,324.5,468.6,321.7,468.6,319z"
       id="path5354"
       style="fill:#000000;fill-opacity:1" /><g
       id="g5358"
       style="fill:#000000;fill-opacity:1"><path
         fill="#FFFFFF"
         d="M362.4,338.6c3.4-0.8,7-0.4,10.5-0.5c3.3,0.1,6.9-0.4,10,1.1c4.6,2,7.8,6.8,7.8,11.8c0,6.7,0,13.3,0,20    c0,6.1-4.9,11.7-10.9,12.5c-4.6,0.4-9.3,0.1-13.9,0.1c-6.4,0.2-12.4-5.2-12.8-11.6c-0.2-5.6,0-11.3-0.1-16.9    c0.1-3-0.3-6.1,0.9-8.9C355.5,342.5,358.7,339.7,362.4,338.6z M363.3,346.3c-1.9,1.2-2.6,3.5-2.5,5.7c0,6.4-0.1,12.7,0.1,19.1    c-0.1,2.7,2.3,5.2,5,5.1c4,0.1,8,0.1,12.1,0c2.6,0,4.9-2.5,4.8-5.1c0.1-6.7,0-13.5,0-20.2c0.3-3.2-2.9-5.7-5.9-5.3    C372.4,345.9,367.6,344.8,363.3,346.3z"
         id="path5356"
         style="fill:#000000;fill-opacity:1" /></g><path
       fill="#FFFFFF"
       d="M401.3,344.9c-0.2-2.8,1.8-5.7,4.7-6.1c5-0.3,10,0,15-0.1c3.6,0.1,7.5-0.4,10.8,1.4c4.4,2.1,7.3,7,7,11.9   c0,10.3,0,20.7,0,31c-2.6,0-5.1,0-7.7-0.1c-0.1-10.3,0-20.6-0.1-31c0.3-2.9-2-5.9-5-5.8c-5.6-0.1-11.3-0.1-16.9,0   c-0.2,12.2,0,24.5-0.1,36.7c-2.6,0.1-5.2,0.1-7.8,0.1C401.3,370.3,401.2,357.6,401.3,344.9z"
       id="path5360"
       style="fill:#000000;fill-opacity:1" /><path
       fill="#FFFFFF"
       d="M468.6,338.7c2.6,0,5.1,0,7.7,0.1c0.1,14.7,0,29.5,0,44.2c-2.5,0-5.1,0-7.6,0   C468.5,368.2,468.7,353.5,468.6,338.7z"
       id="path5362"
       style="fill:#000000;fill-opacity:1" /><path
       fill="#FFFFFF"
       d="M487.4,344.9c-0.2-3.1,2.4-6.3,5.7-6.1c6.6-0.1,13.3-0.1,20,0c6.3,0.2,11.9,5.8,12,12.1   c0.1,10.7,0,21.4,0,32.1c-2.6,0-5.1,0-7.7-0.1c-0.2-10.7,0.1-21.3-0.1-31.9c0-2.6-2.5-4.9-5.1-4.8c-5.6-0.1-11.2,0-16.8,0.1   c-0.2,12.3,0.1,24.5-0.2,36.8c-2.6,0-5.2,0-7.8,0C487.4,370.3,487.3,357.6,487.4,344.9z"
       id="path5364"
       style="fill:#000000;fill-opacity:1" /><g
       id="g5368"
       style="fill:#000000;fill-opacity:1"><path
         fill="#FFFFFF"
         d="M539.7,341.7c4.8-4.1,11.4-2.8,17.2-3c4.9-0.3,10.7,0.2,13.9,4.4c3.9,4.7,2.3,11.3,2.7,16.9    c-0.3,1.3,0.6,4-1.5,4.1c-6,0.3-12,0-18,0.1c-3.5-0.1-7.1,0.5-10.4-1c0.5,4-1.5,10.2,3.5,12c8.1,0.5,16.3,0,24.4,0.2    c0.1,2.5,0.2,5,0.2,7.4c-7.9,0-15.8,0.1-23.8,0c-5.9-0.2-11.3-5.1-12-11c-0.4-5.3,0-10.7-0.2-16    C535.6,351,535.5,345.2,539.7,341.7z M546.5,346.5c-4,1.7-2.6,6.9-2.7,10.3c7.4,0,14.7,0.1,22.1-0.1c0-2.7,0.4-5.6-0.4-8.2    c-1.2-3-4.9-2.4-7.5-2.5C554.1,346.3,550.2,345.7,546.5,346.5z"
         id="path5366"
         style="fill:#000000;fill-opacity:1" /></g><g
       id="g5372"
       style="fill:#000000;fill-opacity:1"><path
         fill="#FFFFFF"
         d="M617.9,343c-0.1-1.6,0.1-4,2.2-4.1c7.3-0.3,14.6,0,21.9-0.1c4.6-0.1,9.8,2,11.6,6.5    c2,5.3,0.8,11.2,1.2,16.7c-0.2,5.8,1.2,12.7-3.5,17.2c-4.7,5-12.1,3.6-18.3,3.8c-2.8,0.3-5.3-0.7-7.4-2.5c0.1,8,0.1,15.9,0,23.9    c-2.5,0-5.1,0-7.6,0.1C617.8,384,617.9,363.5,617.9,343z M625.8,346.1c-0.3,7.9-0.1,15.9-0.1,23.8c-0.3,2.6,1.5,5.5,4.3,5.5    c4,0.1,8,0.1,12,0c2.8,0.1,5.1-2.6,4.8-5.4c0-6.4,0-12.8,0-19.1c0.2-2.2-1.4-4.6-3.8-4.7C637.3,345.9,631.6,346.2,625.8,346.1z"
         id="path5370"
         style="fill:#000000;fill-opacity:1" /></g><g
       id="g5376"
       style="fill:#000000;fill-opacity:1"><path
         fill="#FFFFFF"
         d="M668.6,346.1c-0.3-2.5-0.3-4.9-0.3-7.4c6.5,0,13.1-0.1,19.6,0c4.1,0.1,8.3,2.1,10.4,5.8    c1.9,3.1,1.6,6.9,1.6,10.4c-0.1,8.4,0.1,16.8-0.1,25.1c0.2,1.5-1.3,3.1-2.8,2.9c-7.1,0.1-14.1,0.1-21.2,0c-4.6,0-9-2.9-11-6.9    c-3.4-7.4-1.3-18.3,7.2-21c6.6-1.5,13.4-0.3,20.1-0.8c0.2-3,0.1-7.1-3.5-8C682.1,345.8,675.3,346.3,668.6,346.1z M677,375.4    c5.1,0.1,10.1,0,15.2,0c0.1-4.7,0-9.4,0.1-14c-5.7,1.3-11.5,0.1-17.2,0.7C668.9,363.8,669.9,376.1,677,375.4z"
         id="path5374"
         style="fill:#000000;fill-opacity:1" /></g><path
       fill="#FFFFFF"
       d="M710.3,338.8c2.6,0,5.2,0,7.8,0.1c0.1,10.4,0,20.8,0.1,31.3c-0.3,2.7,2,5.5,4.9,5.4c4,0.1,8,0.1,12,0   c2.6-0.1,4.5-2.9,4.2-5.4c0-10.4,0-20.9,0-31.3c2.6,0,5.1,0,7.7,0.1c0,17.7,0,35.5,0,53.2c0,6.5-5.6,12.3-12.1,12.4   c-7.5,0.1-15.1,0-22.6,0.1c0-2.4,0-4.9,0-7.3c7.3-0.3,14.5,0,21.8-0.2c2.7,0,5.1-2.4,5.1-5c0.2-3.8,0-7.6,0.1-11.5   c-1.9,1.3-3.9,2.6-6.3,2.4c-4.3-0.1-8.7,0.4-13-0.4c-5.6-1.3-9.9-6.8-9.8-12.6C710.2,359.6,710.3,349.2,710.3,338.8z"
       id="path5378"
       style="fill:#000000;fill-opacity:1" /><path
       fill="#FFFFFF"
       d="M757.9,344.9c-0.4-3.4,2.7-6.5,6-6.1c11.7,0,23.4-0.1,35.1,0c6.4,0.1,12.2,5.8,12.2,12.2   c0.1,10.7,0,21.3,0,32c-2.6,0-5.2,0-7.8-0.2c0-10.3,0-20.5,0-30.8c0.3-2.7-1.6-5.5-4.3-5.8c-3.9-0.3-7.8,0-11.7-0.2   c0.6,1.2,1.2,2.5,1,3.9c0,11,0,22,0,33c-2.6,0-5.1,0-7.7,0c-0.2-12.2,0-24.5-0.1-36.7c-5-0.2-10-0.1-14.9-0.1   c-0.3,12.2,0,24.5-0.2,36.7c-2.6,0.1-5.2,0.2-7.7,0.2C757.9,370.3,757.9,357.6,757.9,344.9z"
       id="path5380"
       style="fill:#000000;fill-opacity:1" /><g
       id="g5384"
       style="fill:#000000;fill-opacity:1"><path
         fill="#FFFFFF"
         d="M821.7,350.1c0.1-4.9,3.6-9.5,8.4-10.7c5.2-1.2,10.7-0.4,16-0.6c5.5-0.3,11.4,2.8,12.8,8.4    c1,4.8,0.5,9.9,0.5,14.8c0.2,3.5-4.3,2-6.4,2.3c-7.8-0.5-15.9,1.1-23.5-1c0.5,4-1.5,10.3,3.7,12c8.1,0.5,16.3-0.2,24.4,0.4    c0,2.4,0,4.9,0,7.3c-7.9,0-15.7,0.1-23.6,0c-6.4,0-12-5.7-12.3-12C821.6,364,821.5,357,821.7,350.1z M830.7,347.6    c-2,2.6-0.9,6.1-1.1,9.1c7.4,0.1,14.8,0.1,22.1,0c-0.1-2.9,0.6-6-0.6-8.7c-2.3-3.1-6.7-1.6-10-2    C837.6,346.5,833.5,345.1,830.7,347.6z"
         id="path5382"
         style="fill:#000000;fill-opacity:1" /></g><path
       fill="#FFFFFF"
       d="M870,344.9c-0.3-3.3,2.6-6.4,6-6.1c6.3,0,12.7,0,19,0c6.6-0.1,12.6,5.7,12.6,12.3c0,10.6,0,21.3,0,31.9   c-2.6,0-5.2,0-7.7-0.1c-0.1-10.3,0-20.7,0-31c0.3-2.8-1.8-5.7-4.8-5.7c-5.7-0.1-11.5-0.1-17.2,0c-0.1,12.2,0.1,24.4-0.1,36.6   c-2.6,0.1-5.2,0.2-7.8,0.2C870,370.3,870,357.6,870,344.9z"
       id="path5386"
       style="fill:#000000;fill-opacity:1" /><path
       fill="#FFFFFF"
       d="M948.8,343.7c2.1-3.4,6.3-5.1,10.2-5c8.1,0,16.3,0,24.4,0c0,2.5,0,4.9-0.1,7.3c-8.4,0.2-16.8-0.1-25.2,0.1   c-3.7,0.3-3.5,4.8-3.1,7.5c9,2.1,18,4.3,27.1,6.4c1.5,0.3,3.4,1.1,3.2,2.9c0,5.2,1.1,11.3-2.4,15.7c-2.6,3.3-6.9,4.4-10.9,4.3   c-8.2,0-16.3,0-24.5,0c0-2.5,0-4.9,0.2-7.4c8.1,0,16.2,0,24.3,0c2.2,0.1,4.8-0.7,5.7-2.9c0.6-2,0.3-4.2,0.3-6.3   c-9.1-2.4-18.3-4.5-27.5-6.8c-1.4-0.4-3.3-0.8-3.4-2.6C947,352.6,946.3,347.7,948.8,343.7z"
       id="path5388"
       style="fill:#000000;fill-opacity:1" /></g><g
     id="g5394"
     transform="translate(0,45.833333)"><path
       d="m 102.4,77.4 c 16.5,-13.2 37.5,-20.6 58.6,-20.9 0.1,0 0.4,0 0.6,0 -0.1,15.7 0,31.4 0,47 -13.8,0.3 -27.3,6.5 -36.4,16.8 -8.1,8.9 -12.6,20.8 -12.8,32.9 -15.6,0 -31.2,0.1 -46.8,0 h -0.5 c 0.6,-6 0.8,-12.1 2,-18 4.4,-22.7 17.2,-43.5 35.3,-57.8 z"
       id="path5392"
       inkscape:connector-curvature="0"
       style="fill:#ca2128" /></g><g
     id="g5398"
     transform="translate(0,45.833333)"><path
       d="m 161.7,56.5 c 29.8,-0.4 59.3,13.9 77.4,37.5 13.1,16.8 20.7,37.9 20.4,59.2 -15.6,0.1 -31.2,0.1 -46.9,0 -0.1,-13.3 -5.7,-26.4 -15.3,-35.5 -9.4,-9.2 -22.5,-14.4 -35.7,-14.1 0,-15.7 0,-31.4 0.1,-47.1 z"
       id="path5396"
       inkscape:connector-curvature="0"
       style="fill:#10498c" /></g><g
     id="g5402"
     transform="translate(0,45.833333)"><path
       d="m 14,153.1 c 17.1,0.1 34.2,-0.1 51.2,0.1 h 0.5 c -0.5,21.5 7.1,42.9 20.2,59.9 17.7,23.1 46.2,37.4 75.3,37.6 0,17.2 0,34.4 0,51.6 -33.1,-0.2 -65.9,-12 -91.6,-32.8 C 34.7,241.8 13.4,197.7 14,153.1 Z"
       id="path5400"
       inkscape:connector-curvature="0"
       style="fill:#f68d22" /></g><g
     id="g5406"
     transform="translate(0,45.833333)"><path
       d="m 65.7,153.2 c 15.6,0.1 31.2,0 46.8,0 -0.1,11.5 3.9,23 11.3,31.9 9.1,11.3 23.3,18.3 37.9,18.5 0,15.7 0,31.4 0,47 h -0.5 C 132.1,250.4 103.6,236.1 85.9,213 72.7,196.1 65.1,174.7 65.7,153.2 Z"
       id="path5404"
       inkscape:connector-curvature="0"
       style="fill:#d06a28" /></g><g
     id="g5410"
     transform="translate(0,45.833333)"><path
       d="m 212.6,153.2 c 15.6,0.1 31.2,0.1 46.9,0 h 0.4 c -0.5,13.8 -2.9,27.6 -8.7,40.2 -10.6,23.7 -30.9,42.7 -55.3,51.5 -10.9,4 -22.6,6 -34.2,5.8 0,-15.7 0,-31.4 0,-47 12.5,0.3 25,-4.4 34.3,-12.7 10.5,-9.5 16.8,-23.6 16.6,-37.8 z"
       id="path5408"
       inkscape:connector-curvature="0"
       style="fill:#0d756e" /></g><g
     id="g5414"
     transform="translate(0,45.833333)"><path
       d="m 259.9,153.2 c 17.1,-0.1 34.2,0 51.3,-0.1 0.1,28.9 -8.4,57.8 -24.3,81.9 -17,26 -42.3,46.5 -71.4,57.6 -17.3,6.6 -35.9,10 -54.5,9.8 0,-17.2 0,-34.4 0,-51.6 h 0.5 c 11.6,0.1 23.3,-1.8 34.2,-5.8 24.4,-8.8 44.8,-27.9 55.3,-51.5 6,-12.7 8.4,-26.6 8.9,-40.3 z"
       id="path5412"
       inkscape:connector-curvature="0"
       style="fill:#169b96" /></g></svg>