<?xml version="1.0" encoding="UTF-8" standalone="no"?>
<svg
   xmlns:dc="http://purl.org/dc/elements/1.1/"
   xmlns:cc="http://creativecommons.org/ns#"
   xmlns:rdf="http://www.w3.org/1999/02/22-rdf-syntax-ns#"
   xmlns:svg="http://www.w3.org/2000/svg"
   xmlns="http://www.w3.org/2000/svg"
   xmlns:sodipodi="http://sodipodi.sourceforge.net/DTD/sodipodi-0.dtd"
   xmlns:inkscape="http://www.inkscape.org/namespaces/inkscape"
   width="66px"
   height="80px"
   viewBox="0 0 66 80"
   version="1.1"
   id="svg14"
   sodipodi:docname="mastercard-idcheck-light.svg"
   inkscape:version="0.92.1 r15371">
  <metadata
     id="metadata20">
    <rdf:RDF>
      <cc:Work
         rdf:about="">
        <dc:format>image/svg+xml</dc:format>
        <dc:type
           rdf:resource="http://purl.org/dc/dcmitype/StillImage" />
        <dc:title>datatrans_security-logos-mastercard-IDCheck</dc:title>
      </cc:Work>
    </rdf:RDF>
  </metadata>
  <defs
     id="defs18" />
  <sodipodi:namedview
     pagecolor="#ffffff"
     bordercolor="#666666"
     borderopacity="1"
     objecttolerance="10"
     gridtolerance="10"
     guidetolerance="10"
     inkscape:pageopacity="0"
     inkscape:pageshadow="2"
     inkscape:window-width="1920"
     inkscape:window-height="1009"
     id="namedview16"
     showgrid="false"
     inkscape:zoom="2.95"
     inkscape:cx="33"
     inkscape:cy="40"
     inkscape:window-x="1912"
     inkscape:window-y="-8"
     inkscape:window-maximized="1"
     inkscape:current-layer="datatrans_security-logos-mastercard-IDCheck" />
  <!-- Generator: Sketch 55.2 (78181) - https://sketchapp.com -->
  <title
     id="title2">datatrans_security-logos-mastercard-IDCheck</title>
  <desc
     id="desc4">Created with Sketch.</desc>
  <g
     id="datatrans_security-logos-mastercard-IDCheck"
     stroke="none"
     stroke-width="1"
     fill="none"
     fill-rule="evenodd">
    <path
       style="fill:#ffffff;fill-rule:nonzero;fill-opacity:1"
       inkscape:connector-curvature="0"
       id="Shape"
       d="m 61.684615,71.105085 h -0.118461 v 0.32 h -0.05923 v -0.32 h -0.118462 v -0.05966 H 61.69 Z m 0.463077,0.32 h -0.05923 v -0.309153 l -0.107692,0.271187 h -0.06462 l -0.107693,-0.271187 v 0.309153 h -0.05923 v -0.379661 h 0.09154 l 0.107692,0.271186 0.107693,-0.271186 h 0.09154 z m -56.7161535,0 H 4.6076923 v -9.491526 h 0.8238462 z m 6.2623075,-9.491526 c 0.720634,-0.01089 1.437912,0.100972 2.121539,0.330848 0.598423,0.199138 1.14873,0.522482 1.615384,0.949152 0.444441,0.417487 0.791935,0.928625 1.017693,1.49695 0.475447,1.268858 0.475447,2.668768 0,3.937627 -0.225601,0.568409 -0.573117,1.079579 -1.017693,1.496949 -0.466654,0.42667 -1.016961,0.750014 -1.615384,0.949152 -0.683627,0.229876 -1.400905,0.341733 -2.121539,0.330848 H 8.2530769 V 61.933559 Z M 9.0769231,62.72 v 7.918644 h 2.6169229 c 0.618187,0.01109 1.233709,-0.08429 1.82,-0.282034 0.492477,-0.168569 0.943922,-0.440294 1.324615,-0.797288 0.361367,-0.348391 0.639395,-0.774953 0.813077,-1.247458 0.364815,-1.053625 0.364815,-2.200611 0,-3.254237 C 15.47757,64.58369 15.199637,64.15542 14.838461,63.804746 14.458768,63.446413 14.00702,63.174505 13.513846,63.007458 12.928634,62.813493 12.315217,62.72 11.699231,62.730848 Z M 26.846154,61.825085 c 0.395195,-0.0011 0.789161,0.04439 1.173846,0.135593 0.373262,0.08606 0.734849,0.217182 1.076923,0.390508 0.322708,0.165011 0.623102,0.370981 0.893846,0.612882 0.265111,0.237136 0.495368,0.511069 0.683846,0.813559 l -0.683846,0.461017 c -0.16168,-0.248858 -0.355421,-0.475011 -0.576154,-0.672542 -0.222098,-0.199965 -0.468101,-0.371231 -0.732307,-0.509831 -0.273159,-0.141635 -0.562485,-0.249098 -0.861539,-0.32 -0.312095,-0.07584 -0.632028,-0.114073 -0.953077,-0.113898 -0.536125,-0.0045 -1.068107,0.0949 -1.566923,0.292881 -0.471218,0.185774 -0.899932,0.466278 -1.26,0.824407 -0.362181,0.365777 -0.647818,0.801034 -0.84,1.28 -0.408975,1.064355 -0.408975,2.244119 0,3.308475 0.192052,0.479034 0.477705,0.914316 0.84,1.28 0.360068,0.358129 0.788782,0.638633 1.26,0.824406 0.498816,0.197981 1.030798,0.297416 1.566923,0.292882 0.319005,9.75e-4 0.637039,-0.03543 0.947693,-0.108475 0.599129,-0.132448 1.154998,-0.416134 1.615384,-0.824407 0.22205,-0.198265 0.415924,-0.426399 0.576154,-0.677966 L 30.68,69.608136 c -0.19575,0.295353 -0.4293,0.563425 -0.694615,0.797288 -0.270143,0.237117 -0.568602,0.439357 -0.888462,0.602034 -0.331431,0.170515 -0.682208,0.299825 -1.044615,0.385084 -1.02446,0.235038 -2.095324,0.155699 -3.074616,-0.227796 -0.570395,-0.22723 -1.090224,-0.566467 -1.529231,-0.997966 -0.437009,-0.437423 -0.781389,-0.95959 -1.012307,-1.534916 -0.488679,-1.260778 -0.488679,-2.660577 0,-3.921355 0.230918,-0.575327 0.575298,-1.097493 1.012307,-1.534916 0.439007,-0.431499 0.958836,-0.770736 1.529231,-0.997966 0.601971,-0.237645 1.243463,-0.357303 1.89,-0.352542 z m 6.601538,4.338983 c 0.12061,-0.201174 0.269311,-0.383834 0.441539,-0.542373 0.161399,-0.149281 0.342621,-0.275233 0.538461,-0.374237 0.197128,-0.09682 0.405002,-0.16965 0.619231,-0.216949 0.212261,-0.04672 0.428885,-0.07035 0.646154,-0.07051 0.366571,-0.0038 0.730996,0.05676 1.076923,0.178983 0.313228,0.110387 0.600865,0.283853 0.845385,0.509831 0.236255,0.226256 0.420102,0.502179 0.538461,0.808135 0.134676,0.345261 0.200544,0.713853 0.193846,1.084746 v 3.910508 h -0.77 v -3.671864 c 0.0041,-0.29485 -0.04138,-0.588273 -0.134615,-0.867797 -0.08208,-0.246183 -0.218284,-0.470519 -0.398462,-0.656271 -0.180795,-0.183319 -0.399612,-0.324083 -0.640769,-0.412203 -0.276397,-0.09891 -0.568269,-0.146688 -0.861538,-0.141017 -0.283416,-0.0022 -0.56471,0.04935 -0.829231,0.151864 -0.251149,0.09736 -0.480113,0.244963 -0.673077,0.433899 -0.193907,0.191455 -0.34771,0.420148 -0.452308,0.672542 -0.112732,0.2713 -0.169524,0.562856 -0.166923,0.856949 v 3.633898 h -0.764615 v -9.762711 h 0.764615 z M 43.376923,64.96 c 0.403543,-0.004 0.803431,0.07731 1.173846,0.238644 0.355314,0.156162 0.674409,0.385215 0.936923,0.672542 0.27145,0.300309 0.483453,0.650079 0.624616,1.030509 0.156835,0.419563 0.2371,0.864224 0.236923,1.312542 0,0.05966 0,0.113899 0,0.168136 0,0.05424 0,0.103051 0,0.151864 H 41.04 c 0.02072,0.341721 0.104725,0.676521 0.247692,0.987119 0.129462,0.279223 0.312459,0.529906 0.538462,0.737627 0.221037,0.20045 0.478991,0.355241 0.759231,0.455593 0.291911,0.105461 0.599883,0.158692 0.91,0.157288 0.409584,0.007 0.815729,-0.07634 1.19,-0.244067 0.352068,-0.165066 0.67279,-0.390835 0.947692,-0.667119 l 0.409231,0.542373 c -0.186186,0.19128 -0.391948,0.362176 -0.613847,0.50983 -0.201298,0.13146 -0.416141,0.240571 -0.640769,0.325424 -0.214166,0.07974 -0.436205,0.136104 -0.662307,0.168136 -0.224779,0.03189 -0.451466,0.0482 -0.678462,0.04881 -0.436776,0.0052 -0.870327,-0.0759 -1.276154,-0.238644 C 41.792957,71.164229 41.450237,70.93532 41.163846,70.644068 40.877064,70.347465 40.653512,69.994936 40.506923,69.608136 40.3452,69.182397 40.264815,68.729707 40.27,68.273898 c -0.0051,-0.452277 0.07528,-0.901403 0.236923,-1.32339 0.14136,-0.393707 0.359192,-0.755094 0.640769,-1.06305 0.282333,-0.293812 0.621327,-0.526372 0.996154,-0.68339 0.396227,-0.171977 0.823168,-0.260569 1.254616,-0.26034 z m 0,0.68339 c -0.302448,-0.0027 -0.602485,0.0544 -0.883077,0.168135 -0.262094,0.107092 -0.501501,0.263561 -0.705385,0.461017 -0.205709,0.201183 -0.373546,0.438229 -0.495384,0.699661 -0.131677,0.282251 -0.215404,0.584755 -0.247692,0.894916 h 4.528461 C 45.551684,67.554788 45.477033,67.248514 45.353077,66.961356 45.239939,66.70035 45.079212,66.463028 44.879231,66.261695 44.480274,65.862172 43.939486,65.6396 43.376923,65.64339 Z M 51.044615,64.96 c 0.44869,-0.004 0.893623,0.08265 1.308462,0.254915 0.394009,0.163971 0.745736,0.416234 1.028461,0.737627 l -0.495384,0.542373 c -0.238742,-0.243027 -0.51983,-0.439747 -0.829231,-0.580339 -0.324487,-0.141207 -0.675026,-0.211455 -1.028462,-0.206101 -0.331123,-0.0016 -0.659095,0.0648 -0.963846,0.195254 -0.291893,0.126699 -0.555564,0.311134 -0.775384,0.542373 -0.232131,0.231825 -0.415293,0.508564 -0.538462,0.813559 -0.247048,0.662605 -0.247048,1.392989 0,2.055593 0.231091,0.605562 0.698003,1.089583 1.292308,1.339661 0.304615,0.130891 0.632678,0.19735 0.963846,0.195254 0.357887,0.004 0.712399,-0.07001 1.039231,-0.216949 0.31148,-0.140222 0.595865,-0.334861 0.84,-0.574915 l 0.479231,0.542373 c -0.284093,0.319858 -0.635446,0.571854 -1.028462,0.737627 -0.412955,0.172258 -0.85613,0.258954 -1.303077,0.254915 -0.448298,0.0055 -0.89316,-0.07937 -1.308461,-0.249491 -0.776986,-0.318076 -1.390202,-0.943589 -1.696154,-1.73017 -0.318399,-0.841904 -0.318399,-1.772333 0,-2.614237 0.304176,-0.788989 0.917742,-1.416821 1.696154,-1.735593 0.41687,-0.197367 0.869577,-0.306289 1.33,-0.32 z m 4.916154,2.79322 h 1.028462 l 2.692308,-2.711864 h 0.96923 l -3.015384,3.010169 3.06923,3.368136 H 59.73 l -2.692308,-2.988475 h -1.028461 v 2.988475 h -0.807693 v -9.762712 h 0.764616 z M 12.576923,57.057627 V 53.80339 c 0.03809,-0.553657 -0.162178,-1.097053 -0.549715,-1.491557 -0.387536,-0.394504 -0.924864,-0.601967 -1.4749,-0.56946 C 9.8274492,51.694507 9.1341774,52.047818 8.7430769,52.664407 8.3865055,52.066202 7.7336114,51.71241 7.0415385,51.742373 6.4389555,51.711689 5.8653024,52.004726 5.5338461,52.512542 v -0.64 H 4.4138462 v 5.185085 h 1.1307692 v -2.874576 c -0.048699,-0.359002 0.064226,-0.721162 0.3079608,-0.987651 0.2437344,-0.266488 0.5928364,-0.409488 0.9520392,-0.389976 0.7430769,0 1.12,0.488135 1.12,1.366779 v 2.885424 h 1.1307692 v -2.874576 c -0.046701,-0.358594 0.066915,-0.719581 0.3101978,-0.985575 0.2432825,-0.265994 0.591167,-0.409591 0.9498026,-0.392052 0.764615,0 1.130769,0.488135 1.130769,1.366779 v 2.885424 z M 29.301538,51.856271 H 27.470769 V 50.28339 H 26.34 v 1.572881 h -1.044615 v 1.014237 H 26.34 v 2.364746 c 0,1.204068 0.463077,1.920015 1.787692,1.920015 0.494878,0.0017 0.980166,-0.137464 1.4,-0.401371 l -0.323077,-0.965423 c -0.29307,0.193985 -0.630308,0.309703 -0.98,0.336271 -0.538461,0 -0.743077,-0.347119 -0.743077,-0.867797 v -2.386441 h 1.82 z m 9.552308,-0.130169 c -0.556275,-0.01648 -1.076932,0.274876 -1.356923,0.759322 v -0.629153 h -1.109231 v 5.185085 h 1.12 v -2.907119 c 0,-0.856949 0.366154,-1.334237 1.076923,-1.334237 0.239553,-0.0033 0.477409,0.04093 0.7,0.130169 l 0.344616,-1.084745 c -0.255785,-0.09217 -0.525267,-0.139854 -0.796923,-0.141017 z m -14.441538,0.542373 c -0.633971,-0.379674 -1.362873,-0.56793 -2.1,-0.542373 -1.303077,0 -2.153846,0.629152 -2.153846,1.659661 0,0.846101 0.624615,1.366779 1.776923,1.529491 l 0.538461,0.07593 c 0.613846,0.08678 0.904615,0.249492 0.904615,0.542373 0,0.401356 -0.40923,0.629153 -1.173846,0.629153 -0.615029,0.01793 -1.218159,-0.17311 -1.712307,-0.542373 l -0.538462,0.878644 c 0.652408,0.458842 1.433827,0.694591 2.229231,0.672542 1.486154,0 2.347692,-0.705084 2.347692,-1.692203 0,-0.987119 -0.678461,-1.388474 -1.798461,-1.551186 l -0.538462,-0.07593 c -0.484615,-0.06508 -0.872308,-0.162711 -0.872308,-0.50983 0,-0.347119 0.366154,-0.607458 0.98,-0.607458 0.567364,0.0066 1.123552,0.159768 1.615385,0.444746 z M 54.41,51.726102 c -0.556275,-0.01648 -1.076932,0.274876 -1.356923,0.759322 v -0.629153 h -1.109231 v 5.185085 h 1.12 V 54.134237 C 53.063846,53.277288 53.43,52.8 54.140769,52.8 c 0.239553,-0.0033 0.477408,0.04093 0.7,0.130169 l 0.344616,-1.084745 C 54.9296,51.753255 54.660118,51.70557 54.388461,51.704407 Z m -14.430769,2.711864 c -0.02694,0.736778 0.25561,1.450881 0.778283,1.967028 0.522674,0.516147 1.237082,0.78655 1.967871,0.744836 0.672473,0.03446 1.333356,-0.186142 1.852307,-0.618305 l -0.538461,-0.911186 c -0.38717,0.297389 -0.859287,0.460977 -1.346154,0.466441 -0.858469,-0.06996 -1.51976,-0.792131 -1.51976,-1.659661 0,-0.867531 0.661291,-1.589697 1.51976,-1.659661 0.486867,0.0055 0.958984,0.169051 1.346154,0.46644 l 0.538461,-0.911186 c -0.518951,-0.432163 -1.179834,-0.652768 -1.852307,-0.618305 -0.730789,-0.04171 -1.445197,0.228689 -1.967871,0.744836 -0.522673,0.516147 -0.805218,1.23025 -0.778283,1.967028 z m 10.48923,0 v -2.592542 h -1.12 v 0.629152 c -0.385859,-0.500095 -0.987012,-0.782671 -1.615384,-0.759322 -1.486921,0 -2.692308,1.214143 -2.692308,2.711865 0,1.497721 1.205387,2.711864 2.692308,2.711864 0.628372,0.02335 1.229525,-0.259227 1.615384,-0.759322 v 0.629153 h 1.12 z m -4.167692,0 c 0.0498,-0.851163 0.76593,-1.506111 1.611826,-1.47413 0.845895,0.03198 1.511263,0.739158 1.497583,1.591687 -0.01368,0.852528 -0.701391,1.537677 -1.54787,1.542104 -0.431018,0.0055 -0.844726,-0.170588 -1.141236,-0.48573 -0.29651,-0.315143 -0.448874,-0.740703 -0.420303,-1.173931 z M 32.785385,51.726102 c -1.486921,0.02097 -2.675433,1.252109 -2.654616,2.74983 0.02082,1.497721 1.24308,2.694866 2.73,2.673898 0.768347,0.02722 1.519741,-0.231504 2.110769,-0.726779 l -0.538461,-0.835254 c -0.42519,0.343473 -0.951945,0.534329 -1.496923,0.542372 -0.769803,0.06668 -1.452457,-0.495907 -1.54,-1.269152 h 3.828461 c 0,-0.141017 0,-0.282034 0,-0.433898 0,-1.627119 -1.001538,-2.711865 -2.444615,-2.711865 z m 0,1.008813 c 0.338478,-0.0073 0.665953,0.121237 0.910344,0.357231 0.244391,0.235994 0.385667,0.560134 0.392732,0.901074 h -2.692307 c 0.04056,-0.724163 0.648027,-1.283044 1.367692,-1.258305 z m 28.091538,1.713899 v -4.675255 h -1.12 v 2.711865 c -0.38586,-0.500095 -0.987013,-0.782671 -1.615384,-0.759322 -1.486921,0 -2.692308,1.214143 -2.692308,2.711864 0,1.497721 1.205387,2.711864 2.692308,2.711864 0.628371,0.02335 1.229524,-0.259227 1.615384,-0.759321 v 0.629152 h 1.12 z m -4.167692,0 c 0.0498,-0.851163 0.76593,-1.506111 1.611825,-1.474131 0.845896,0.03198 1.511264,0.739159 1.497583,1.591687 -0.01368,0.852529 -0.70139,1.537677 -1.54787,1.542105 -0.431017,0.0055 -0.844725,-0.170589 -1.141236,-0.485731 -0.29651,-0.315142 -0.448873,-0.740702 -0.420302,-1.17393 z m -37.816154,0 v -2.592543 h -1.12 v 0.629153 c -0.38586,-0.500095 -0.987013,-0.782671 -1.615385,-0.759322 -1.48692,0 -2.692307,1.214143 -2.692307,2.711864 0,1.497721 1.205387,2.711864 2.692307,2.711864 0.628372,0.02335 1.229525,-0.259227 1.615385,-0.759321 v 0.629152 h 1.12 z m -4.167692,0 c 0.04981,-0.851163 0.76593,-1.506111 1.611825,-1.474131 0.845896,0.03198 1.511263,0.739159 1.497583,1.591687 -0.01368,0.852529 -0.70139,1.537677 -1.54787,1.542105 -0.431017,0.0055 -0.844725,-0.170589 -1.141236,-0.485731 -0.29651,-0.315142 -0.448873,-0.740702 -0.420302,-1.17393 z M 62.74,56.287458 c 0.07001,-8.64e-4 0.139509,0.01203 0.204615,0.03797 0.06184,0.02542 0.118443,0.0622 0.166924,0.108474 0.04731,0.04676 0.08565,0.101926 0.113076,0.162712 0.05512,0.128026 0.05512,0.27333 0,0.401356 -0.02743,0.06079 -0.06576,0.115948 -0.113076,0.162712 -0.04848,0.04627 -0.105085,0.08306 -0.166924,0.108474 -0.06446,0.02865 -0.134155,0.04343 -0.204615,0.04339 -0.208358,-0.0016 -0.397109,-0.124104 -0.484615,-0.314576 -0.05448,-0.128158 -0.05448,-0.273198 0,-0.401356 0.02743,-0.06079 0.06576,-0.115948 0.113077,-0.162712 0.04848,-0.04627 0.105084,-0.08306 0.166923,-0.108474 0.06511,-0.02593 0.134608,-0.03883 0.204615,-0.03797 z m 0,0.91661 c 0.05374,3.29e-4 0.106952,-0.01076 0.156154,-0.03254 0.04633,-0.02083 0.08834,-0.05027 0.123846,-0.08678 0.139621,-0.153441 0.139621,-0.388932 0,-0.542373 -0.03542,-0.03661 -0.07746,-0.06606 -0.123846,-0.08678 -0.04925,-0.02163 -0.102426,-0.03271 -0.156154,-0.03254 -0.05368,2.88e-4 -0.106767,0.01135 -0.156154,0.03254 -0.04838,0.01998 -0.09231,0.04948 -0.129231,0.08678 -0.139621,0.153441 -0.139621,0.388932 0,0.542373 0.03701,0.03718 0.08092,0.06667 0.129231,0.08678 0.04895,0.0232 0.102084,0.03612 0.156154,0.03797 z m 0.03231,-0.645424 c 0.05027,-0.0025 0.0998,0.0129 0.14,0.04339 0.03344,0.02788 0.05148,0.07028 0.04846,0.113898 0.0016,0.03642 -0.01211,0.07184 -0.03769,0.09763 -0.03121,0.02855 -0.07102,0.04574 -0.113077,0.04881 l 0.156154,0.178983 h -0.123846 l -0.145385,-0.178983 h -0.04846 v 0.178983 h -0.102308 v -0.477288 z m -0.118462,0.0922 v 0.13017 h 0.118462 c 0.02108,0.0063 0.04353,0.0063 0.06461,0 0.0077,-0.01535 0.0077,-0.03346 0,-0.04881 0.0077,-0.01535 0.0077,-0.03346 0,-0.04881 -0.02108,-0.0063 -0.04353,-0.0063 -0.06461,0 z" />
    <rect
       style="fill:#ff5f00;fill-rule:nonzero"
       height="30.70373"
       width="16.961538"
       y="12.344406"
       x="24.051538"
       id="Rectangle" />
    <path
       style="fill:#eb001b;fill-rule:nonzero"
       inkscape:connector-curvature="0"
       id="_Path_"
       d="M 25.128461,27.698983 C 25.12212,21.706572 27.852454,16.044227 32.532308,12.344407 24.584502,6.0529094 13.171136,6.9693204 6.3132142,14.449611 c -6.8579212,7.48029 -6.8579212,19.01303 0,26.493321 6.8579218,7.48029 18.2712878,8.396701 26.2190938,2.105204 -4.678365,-3.698647 -7.408533,-9.358645 -7.403847,-15.349153 z" />
    <path
       style="fill:#f79e1b;fill-rule:nonzero"
       inkscape:connector-curvature="0"
       id="path9"
       d="m 62.045385,40.032908 v -0.822695 h 0.253077 V 39.04 h -0.64077 v 0.170213 h 0.253077 v 0.822695 z m 1.243846,0 V 39.04 H 63.095385 L 62.869231,39.74922 62.643077,39.04 h -0.199231 v 0.992908 h 0.14 v -0.744681 l 0.21,0.64539 h 0.145385 l 0.21,-0.64539 V 40.04 Z" />
    <path
       style="fill:#f79e1b;fill-rule:nonzero"
       inkscape:connector-curvature="0"
       id="Path"
       d="m 63.897692,27.698983 c 0,7.475732 -4.238004,14.295132 -10.91367,17.561976 -6.675666,3.266844 -14.617166,2.407594 -20.451714,-2.212823 4.676323,-3.701787 7.406696,-9.361033 7.406696,-15.351865 0,-5.990832 -2.730373,-11.650078 -7.406696,-15.351864 5.834548,-4.6204178 13.776048,-5.479668 20.451714,-2.212824 6.675666,3.266844 10.91367,10.086245 10.91367,17.561976 z" />
  </g>
</svg>
